<svg id="Capa_1" data-name="Capa 1" xmlns="http://www.w3.org/2000/svg" viewBox="0 0 13.72 11.01"><defs><style>.cls-1{fill:#7b9e41;}.cls-2{fill:#09a0e4;}</style></defs><title>logo-ideer2</title><path class="cls-1" d="M2.28,6.14a1.36,1.36,0,0,1,0-.4A2.37,2.37,0,0,1,3,4.37a2.52,2.52,0,0,1,1.77-.74,2.54,2.54,0,0,1,.78.12L2.41,6.91A2.31,2.31,0,0,1,2.28,6.14Zm5,.48a4.74,4.74,0,0,1-.67,1.29A2.51,2.51,0,0,1,4,8.53H4l2.89-2.9A5.07,5.07,0,0,1,8.16,2.74,4.44,4.44,0,0,0,7.28,2a4.83,4.83,0,0,0-5.88.7A4.85,4.85,0,0,0,0,5.74a2.68,2.68,0,0,0,0,.4A4.81,4.81,0,0,0,.69,8.62a5.46,5.46,0,0,0,.71.91,4.55,4.55,0,0,0,.9.7,4.81,4.81,0,0,0,4.94,0Z"/><path class="cls-1" d="M11.9,1.42A4.87,4.87,0,0,0,8.22,3.1a4.49,4.49,0,0,0-.94,2.12,5.41,5.41,0,0,0,0,1V11H9.35s0-4.72,0-4.8A2.56,2.56,0,0,1,11.9,3.7a2.4,2.4,0,0,1,1.82.73V1.75A5,5,0,0,0,11.9,1.42Z"/><path class="cls-2" d="M12,1.17a4.44,4.44,0,0,1,1.22.16V1.28a1.25,1.25,0,1,0-2.49-.06.41.41,0,0,0,0,.11A4.68,4.68,0,0,1,12,1.17Z"/></svg>