<?xml version="1.0" encoding="UTF-8"?>
<!DOCTYPE svg PUBLIC "-//W3C//DTD SVG 1.1//EN" "http://www.w3.org/Graphics/SVG/1.1/DTD/svg11.dtd">
<!-- Creator: CorelDRAW X7 -->
<svg xmlns="http://www.w3.org/2000/svg" xml:space="preserve" width="100%" height="100%" version="1.1" shape-rendering="geometricPrecision" text-rendering="geometricPrecision" image-rendering="optimizeQuality" fill-rule="evenodd" clip-rule="evenodd"
viewBox="0 0 2937 624"
 xmlns:xlink="http://www.w3.org/1999/xlink">
 <g id="Capa_x0020_1">
  <metadata id="CorelCorpID_0Corel-Layer"/>
  <g id="_435598600">
   <path fill="#7B9E41" fill-rule="nonzero" d="M129 347c0,-8 0,-15 2,-23 4,-28 17,-56 39,-77 28,-28 64,-42 100,-42 15,0 30,2 44,7l-178 178c-5,-14 -7,-29 -7,-43zm280 27c0,0 -18,52 -38,73 -39,39 -95,50 -144,35 0,0 0,0 0,0l163 -164c6,-62 32,-119 71,-163 -16,-16 -32,-29 -50,-40 -43,-26 -92,-39 -141,-39 -69,0 -138,27 -191,79 -47,47 -73,108 -78,169 -1,8 -1,15 -1,23 0,48 13,97 39,140 11,18 24,35 40,51 16,16 33,29 51,40 85,52 193,52 279,1l0 -205z"/>
   <path fill="#7B9E41" fill-rule="nonzero" d="M672 80c-82,0 -158,37 -208,95 -29,34 -44,75 -53,120 -4,18 -2,56 -2,56l0 271 119 0c0,0 -1,-267 -1,-271 0,-79 67,-142 145,-142 39,0 85,16 103,41l0 -151c-28,-12 -68,-19 -103,-19z"/>
   <path fill="#09A0E4" fill-rule="nonzero" d="M675 66c24,0 47,3 69,9 0,-1 0,-2 0,-3 1,-39 -30,-71 -69,-72 -39,-1 -71,30 -72,69 0,2 0,4 1,6 22,-6 46,-9 71,-9z"/>
   <path fill="#706E6E" fill-rule="nonzero" d="M927 555c-3,-3 -6,-5 -10,-7 -4,-2 -9,-3 -14,-3 -5,0 -10,1 -14,3 -4,2 -8,5 -11,8 -3,3 -5,7 -7,12 -1,4 -2,8 -2,13 0,5 1,10 2,14 2,4 4,8 7,11 3,3 7,6 11,8 4,2 9,3 14,3 5,0 9,-1 13,-2 4,-1 7,-2 9,-3l0 -25 -19 0 0 -8 28 0 0 37c-5,3 -10,5 -15,6 -5,2 -10,2 -16,2 -6,0 -12,-1 -17,-3 -5,-2 -10,-5 -14,-9 -3,-4 -6,-8 -9,-14 -2,-5 -3,-11 -3,-17 0,-6 1,-12 4,-17 2,-5 5,-10 9,-14 3,-4 8,-7 13,-9 5,-2 11,-3 17,-3 7,0 12,1 17,3 5,2 9,5 13,8l-6 6zm73 40c0,-3 0,-6 -1,-8 -1,-3 -3,-5 -4,-7 -2,-2 -4,-4 -7,-5 -2,-1 -5,-2 -8,-2 -4,0 -6,1 -9,2 -2,1 -5,3 -6,5 -2,2 -4,4 -5,7 0,2 -1,5 -1,8 0,3 1,6 1,9 1,2 3,5 5,7 1,2 4,3 6,4 3,1 5,2 9,2 3,0 6,-1 8,-2 3,-1 5,-2 7,-4 1,-2 3,-5 4,-7 1,-3 1,-6 1,-9zm9 0c0,4 -1,8 -3,11 -1,4 -3,7 -6,9 -2,3 -5,5 -9,6 -3,2 -7,3 -11,3 -5,0 -8,-1 -12,-3 -4,-1 -7,-3 -9,-6 -3,-2 -5,-5 -6,-9 -2,-3 -2,-7 -2,-11 0,-4 0,-8 2,-11 1,-4 3,-7 6,-9 2,-3 5,-5 9,-6 4,-2 7,-2 12,-2 4,0 8,0 11,2 4,1 7,3 9,6 3,2 5,5 6,9 2,3 3,7 3,11zm65 0c0,-3 0,-6 -1,-8 -1,-3 -2,-5 -4,-7 -2,-2 -4,-4 -7,-5 -2,-1 -5,-2 -8,-2 -3,0 -6,1 -9,2 -2,1 -4,2 -6,4 -2,2 -4,5 -5,7 -1,3 -1,6 -1,9 0,3 0,6 1,9 1,2 3,5 5,7 2,2 4,3 6,4 3,1 6,2 9,2 3,0 6,-1 8,-2 3,-1 5,-2 7,-4 2,-2 3,-5 4,-7 1,-3 1,-6 1,-9zm-40 18l0 9 -8 0 0 -88 8 0 0 43 0 0c2,-3 5,-6 9,-8 4,-2 8,-2 11,-2 5,0 9,0 12,2 3,1 6,3 9,6 2,2 4,5 6,9 1,3 2,7 2,11 0,4 -1,8 -2,11 -2,4 -4,7 -6,9 -3,3 -6,5 -9,6 -3,2 -7,3 -12,3 -3,0 -7,-1 -11,-3 -4,-2 -7,-4 -9,-8l0 0zm73 9l-7 0 0 -54 7 0 0 54zm2 -75c0,2 0,3 -2,4 -1,1 -2,2 -3,2 -2,0 -3,-1 -4,-2 -1,-1 -2,-2 -2,-4 0,-2 1,-3 2,-4 1,-1 2,-2 4,-2 1,0 2,1 3,2 2,1 2,2 2,4zm61 44c0,-5 -2,-9 -5,-13 -3,-3 -7,-5 -13,-5 -3,0 -5,1 -7,2 -3,1 -5,2 -6,4 -2,1 -3,3 -4,5 -1,2 -2,5 -2,7l37 0zm8 2l0 2c0,1 0,1 0,2l-45 0c0,3 0,5 1,8 1,2 3,4 5,6 1,2 3,3 6,4 2,1 5,2 8,2 4,0 7,-1 10,-3 3,-2 6,-4 7,-7l6 5c-3,4 -7,7 -11,9 -4,2 -8,3 -12,3 -4,0 -8,-1 -12,-3 -3,-1 -6,-3 -8,-6 -3,-2 -5,-5 -6,-9 -2,-3 -2,-7 -2,-11 0,-4 0,-8 2,-11 1,-4 3,-7 5,-9 3,-3 6,-5 9,-6 3,-2 7,-2 11,-2 4,0 8,0 11,2 3,1 6,3 8,5 2,3 4,6 5,9 1,3 2,7 2,10zm17 -19c0,-2 0,-4 -1,-6l8 0c0,1 0,3 0,5 0,2 0,3 0,4l1 0c1,-3 4,-6 7,-8 3,-2 6,-2 10,-2 1,0 2,0 3,0 1,0 1,0 2,0l-1 8c0,-1 -1,-1 -2,-1 -1,0 -2,0 -3,0 -2,0 -4,0 -6,1 -2,1 -4,2 -5,4 -2,1 -3,4 -4,6 -1,3 -1,6 -1,9l0 28 -8 0 0 -42c0,-2 0,-4 0,-6zm49 -6c0,1 0,3 0,5 0,2 0,3 0,4l0 0c2,-3 5,-6 8,-8 3,-2 7,-2 11,-2 7,0 12,2 16,6 3,4 5,9 5,16l0 33 -8 0 0 -30c0,-3 0,-5 -1,-8 0,-2 -1,-4 -2,-6 -1,-1 -3,-3 -5,-3 -2,-1 -4,-2 -7,-2 -2,0 -4,1 -6,1 -2,1 -4,3 -5,4 -2,2 -3,4 -4,7 -1,3 -1,6 -1,9l0 28 -8 0 0 -42c0,-2 0,-4 0,-6 -1,-2 -1,-4 -1,-6l8 0zm106 27c0,-3 -1,-6 -2,-8 -1,-3 -2,-5 -4,-7 -2,-2 -4,-4 -6,-5 -3,-1 -6,-2 -9,-2 -3,0 -6,1 -8,2 -3,1 -5,3 -7,5 -2,2 -3,4 -4,7 -1,2 -1,5 -1,8 0,3 0,6 1,9 1,2 2,5 4,7 2,2 4,3 7,4 2,1 5,2 8,2 3,0 6,-1 9,-2 2,-1 4,-2 6,-4 2,-2 3,-5 4,-7 1,-3 2,-6 2,-9zm8 0c0,4 -1,8 -2,11 -1,4 -3,7 -6,9 -3,3 -6,5 -9,6 -4,2 -8,3 -12,3 -4,0 -8,-1 -12,-3 -3,-1 -6,-3 -9,-6 -2,-2 -4,-5 -6,-9 -1,-3 -2,-7 -2,-11 0,-4 1,-8 2,-11 2,-4 4,-7 6,-9 3,-3 6,-5 9,-6 4,-2 8,-2 12,-2 4,0 8,0 12,2 3,1 6,3 9,6 3,2 5,5 6,9 1,3 2,7 2,11zm50 0c0,3 1,6 2,9 1,2 2,5 4,7 2,2 4,3 6,4 3,1 6,2 9,2 3,0 6,-1 8,-2 3,-1 5,-2 7,-4 2,-2 3,-5 4,-7 1,-3 2,-6 2,-9 0,-3 -1,-6 -2,-9 -1,-2 -2,-5 -4,-7 -2,-2 -4,-3 -7,-4 -2,-1 -5,-2 -8,-2 -3,0 -6,1 -9,2 -2,1 -4,3 -6,5 -2,2 -3,4 -4,7 -1,2 -2,5 -2,8zm41 18c-3,4 -6,6 -9,8 -4,2 -8,3 -12,3 -4,0 -8,-1 -11,-3 -4,-1 -7,-3 -9,-6 -3,-2 -5,-5 -6,-9 -1,-3 -2,-7 -2,-11 0,-4 1,-8 2,-11 1,-4 3,-7 6,-9 2,-3 5,-5 9,-6 3,-2 7,-2 11,-2 4,0 8,0 12,2 3,2 6,5 9,8l0 0 0 -43 8 0 0 88 -8 0 0 -9 0 0zm70 -22c0,-5 -1,-9 -5,-13 -3,-3 -7,-5 -13,-5 -2,0 -5,1 -7,2 -2,1 -4,2 -6,4 -2,1 -3,3 -4,5 -1,2 -1,5 -2,7l37 0zm8 2l0 2c0,1 0,1 0,2l-45 0c0,3 1,5 2,8 1,2 2,4 4,6 2,2 4,3 6,4 3,1 5,2 8,2 4,0 8,-1 11,-3 3,-2 5,-4 7,-7l5 5c-3,4 -6,7 -10,9 -4,2 -8,3 -13,3 -4,0 -8,-1 -11,-3 -4,-1 -6,-3 -9,-6 -2,-2 -4,-5 -6,-9 -1,-3 -2,-7 -2,-11 0,-4 1,-8 2,-11 2,-4 3,-7 6,-9 2,-3 5,-5 9,-6 3,-2 7,-2 10,-2 5,0 8,0 12,2 3,1 6,3 8,5 2,3 4,6 5,9 1,3 1,7 1,10zm55 22l44 0 0 7 -52 0 0 -82 51 0 0 7 -43 0 0 29 40 0 0 7 -40 0 0 32zm67 -47c0,1 0,3 1,5 0,2 0,3 0,4l0 0c1,-3 4,-6 7,-8 4,-2 8,-2 11,-2 7,0 13,2 16,6 3,4 5,9 5,16l0 33 -8 0 0 -30c0,-3 0,-5 0,-8 -1,-2 -2,-4 -3,-6 -1,-1 -2,-3 -4,-3 -2,-1 -5,-2 -8,-2 -2,0 -4,1 -6,1 -2,1 -3,3 -5,4 -1,2 -3,4 -4,7 -1,3 -1,6 -1,9l0 28 -8 0 0 -42c0,-2 0,-4 0,-6 0,-2 0,-4 0,-6l7 0zm85 7l-15 0 0 31c0,2 0,4 0,5 1,1 1,3 2,3 1,1 2,2 3,2 1,0 2,0 3,0 1,0 2,0 3,0 1,-1 3,-1 4,-2l0 7c-1,1 -3,1 -4,1 -2,1 -3,1 -5,1 -2,0 -3,0 -5,-1 -2,0 -3,-1 -4,-2 -2,-1 -3,-2 -4,-4 -1,-2 -1,-5 -1,-8l0 -33 -11 0 0 -7 11 0 0 -15 8 0 0 15 15 0 0 7zm12 -1c0,-2 0,-4 0,-6l7 0c1,1 1,3 1,5 0,2 0,3 0,4l0 0c2,-3 4,-6 7,-8 3,-2 7,-2 11,-2 1,0 1,0 2,0 1,0 2,0 3,0l-1 8c-1,-1 -2,-1 -3,-1 -1,0 -2,0 -3,0 -2,0 -4,0 -6,1 -2,1 -4,2 -5,4 -1,1 -3,4 -3,6 -1,3 -2,6 -2,9l0 28 -8 0 0 -42c0,-2 0,-4 0,-6zm81 17c0,-5 -1,-9 -4,-13 -4,-3 -8,-5 -14,-5 -2,0 -5,1 -7,2 -2,1 -4,2 -6,4 -1,1 -3,3 -4,5 -1,2 -1,5 -2,7l37 0zm8 2l0 2c0,1 0,1 0,2l-45 0c0,3 1,5 2,8 1,2 2,4 4,6 2,2 4,3 6,4 3,1 5,2 8,2 4,0 8,-1 11,-3 3,-2 5,-4 7,-7l6 5c-4,4 -7,7 -11,9 -4,2 -8,3 -13,3 -4,0 -8,-1 -11,-3 -3,-1 -6,-3 -9,-6 -2,-2 -4,-5 -6,-9 -1,-3 -2,-7 -2,-11 0,-4 1,-8 2,-11 2,-4 3,-7 6,-9 2,-3 5,-5 9,-6 3,-2 7,-2 10,-2 5,0 8,0 12,2 3,1 6,3 8,5 2,3 4,6 5,9 1,3 1,7 1,10zm55 -16l15 0c6,0 12,-2 15,-4 4,-2 6,-6 6,-11 0,-3 -1,-5 -2,-7 -1,-2 -2,-3 -4,-4 -2,-2 -4,-2 -6,-3 -3,0 -6,-1 -9,-1l-15 0 0 30zm0 45l-8 0 0 -82 24 0c4,0 8,0 11,1 4,1 7,2 9,4 3,2 5,4 6,7 1,3 2,6 2,10 0,3 0,6 -1,8 -2,3 -3,5 -5,7 -2,1 -4,3 -7,4 -2,1 -5,2 -8,2l24 39 -10 0 -23 -38 -14 0 0 38zm69 0l-8 0 0 -54 8 0 0 54zm-1 -65l-7 0 12 -17 10 0 -15 17zm68 38c0,-3 -1,-6 -2,-8 -1,-3 -2,-5 -4,-7 -2,-2 -4,-4 -6,-5 -3,-1 -6,-2 -9,-2 -3,0 -6,1 -9,2 -2,1 -4,3 -6,5 -2,2 -3,4 -4,7 -1,2 -2,5 -2,8 0,3 1,6 2,9 1,2 2,5 4,7 2,2 4,3 6,4 3,1 6,2 9,2 3,0 6,-1 9,-2 2,-1 4,-2 6,-4 2,-2 3,-5 4,-7 1,-3 2,-6 2,-9zm8 0c0,4 -1,8 -2,11 -2,4 -4,7 -6,9 -3,3 -6,5 -9,6 -4,2 -8,3 -12,3 -4,0 -8,-1 -12,-3 -3,-1 -6,-3 -9,-6 -2,-2 -4,-5 -6,-9 -1,-3 -2,-7 -2,-11 0,-4 1,-8 2,-11 2,-4 4,-7 6,-9 3,-3 6,-5 9,-6 4,-2 8,-2 12,-2 4,0 8,0 12,2 3,1 6,3 9,6 2,2 4,5 6,9 1,3 2,7 2,11zm46 -14c-1,-2 -3,-4 -5,-6 -3,-1 -6,-2 -9,-2 -1,0 -2,0 -4,1 -1,0 -2,0 -3,1 -2,1 -2,2 -3,3 -1,1 -1,2 -1,4 0,2 1,4 3,5 2,2 5,3 10,4 6,1 11,3 14,6 3,2 5,6 5,10 0,3 -1,5 -2,8 -1,2 -3,3 -5,5 -2,1 -4,2 -6,3 -3,0 -5,1 -8,1 -4,0 -8,-1 -12,-3 -4,-2 -7,-4 -9,-8l6 -5c2,3 4,5 6,6 3,2 6,3 9,3 2,0 4,0 5,-1 2,0 3,0 4,-1 1,-1 2,-2 3,-3 1,-1 1,-3 1,-5 0,-3 -1,-5 -4,-6 -3,-2 -7,-3 -12,-4 -2,0 -3,-1 -5,-2 -2,0 -4,-1 -5,-2 -2,-1 -3,-3 -4,-4 -1,-2 -2,-4 -2,-7 0,-2 1,-5 2,-7 1,-2 3,-3 4,-5 2,-1 4,-2 7,-3 2,0 4,0 7,0 4,0 7,0 11,2 3,2 6,4 8,7l-6 5z"/>
   <polygon fill="#373435" fill-rule="nonzero" points="875,479 865,479 865,386 875,386 "/>
   <path id="1" fill="#373435" fill-rule="nonzero" d="M907 418c0,1 0,3 0,5 0,2 0,4 0,5l1 0c1,-4 4,-6 8,-9 4,-2 8,-3 13,-3 7,0 13,2 17,7 4,5 6,11 6,18l0 38 -9 0 0 -34c0,-3 0,-6 -1,-9 0,-2 -1,-5 -2,-7 -2,-1 -3,-3 -6,-4 -2,-1 -4,-2 -8,-2 -2,0 -4,1 -7,2 -2,1 -4,2 -5,4 -2,2 -4,5 -5,8 -1,3 -1,6 -1,10l0 32 -9 0 0 -48c0,-2 0,-4 0,-6 0,-3 -1,-5 -1,-7l9 0z"/>
   <path id="2" fill="#373435" fill-rule="nonzero" d="M1001 425l-14 0 0 54 -9 0 0 -54 -13 0 0 -7 13 0 0 -17c0,-7 1,-13 5,-17 3,-4 8,-6 15,-6 2,0 3,0 4,0 1,1 3,1 4,1l-2 8c-1,0 -2,0 -3,-1 -1,0 -2,0 -3,0 -2,0 -4,0 -6,1 -1,1 -2,2 -3,4 -1,1 -2,3 -2,5 0,2 0,4 0,6l0 16 14 0 0 7z"/>
   <path id="3" fill="#373435" fill-rule="nonzero" d="M1014 431c0,-2 0,-4 0,-6 -1,-3 -1,-5 -1,-7l9 0c0,1 0,3 0,5 0,2 0,4 0,5l0 0c2,-4 5,-6 8,-9 4,-2 8,-3 12,-3 1,0 2,0 3,0 1,0 2,0 3,1l-1 8c-1,0 -2,0 -3,0 -1,-1 -2,-1 -3,-1 -3,0 -5,1 -7,2 -2,1 -4,2 -6,4 -2,2 -3,4 -4,7 -1,3 -1,6 -1,11l0 31 -9 0 0 -48z"/>
   <path id="4" fill="#373435" fill-rule="nonzero" d="M1098 439c0,-5 -1,-9 -4,-12 -3,-2 -7,-4 -12,-4 -4,0 -7,1 -11,2 -3,2 -5,3 -8,6l-5 -6c3,-3 6,-5 10,-7 5,-1 9,-2 15,-2 3,0 6,0 9,1 3,1 5,3 7,4 3,2 4,5 6,7 1,3 1,7 1,10l0 27c0,3 0,5 1,8 0,2 0,4 0,6l-8 0c0,-2 0,-3 0,-5 0,-2 0,-3 0,-5l-1 0c-3,4 -6,7 -9,9 -4,2 -8,2 -13,2 -2,0 -5,0 -7,0 -3,-1 -5,-2 -7,-4 -2,-1 -4,-3 -5,-6 -2,-2 -2,-5 -2,-8 0,-5 1,-9 3,-11 3,-3 6,-5 10,-7 4,-1 9,-2 14,-2 5,-1 10,-1 16,-1l0 -2zm-3 9c-3,0 -7,0 -11,1 -3,0 -7,1 -10,2 -3,0 -5,2 -7,4 -2,1 -3,4 -3,6 0,3 0,5 1,6 1,1 2,3 4,4 1,1 2,1 4,2 2,0 4,0 5,0 3,0 6,0 9,-1 2,-2 4,-3 6,-5 2,-2 3,-4 4,-6 1,-3 1,-5 1,-8l0 -5 -3 0z"/>
   <path id="5" fill="#373435" fill-rule="nonzero" d="M1176 444c0,-6 -2,-11 -5,-15 -4,-4 -9,-6 -15,-6 -3,0 -6,1 -8,2 -3,1 -5,3 -7,5 -2,1 -4,4 -5,6 -1,2 -1,5 -2,8l42 0zm9 2c0,1 0,2 0,2 0,1 0,2 0,3l-51 0c0,3 1,6 2,8 1,3 3,5 5,7 2,2 4,4 7,5 3,1 5,2 9,2 4,0 8,-1 12,-3 3,-2 6,-5 7,-8l7 6c-4,4 -8,7 -12,9 -5,2 -9,3 -14,3 -5,0 -9,0 -13,-2 -4,-2 -7,-4 -10,-7 -3,-3 -5,-6 -7,-10 -1,-4 -2,-8 -2,-13 0,-4 1,-9 2,-13 2,-4 4,-7 7,-10 3,-3 6,-5 10,-7 3,-1 7,-2 12,-2 5,0 9,1 13,2 3,2 6,4 9,7 2,3 4,6 5,10 2,3 2,7 2,11z"/>
   <path id="6" fill="#373435" fill-rule="nonzero" d="M1237 432c-1,-2 -3,-4 -6,-6 -3,-2 -6,-3 -9,-3 -2,0 -3,1 -5,1 -1,0 -3,1 -4,2 -1,0 -2,1 -3,3 -1,1 -1,2 -1,4 0,3 1,5 3,7 3,1 7,2 12,4 7,1 12,3 16,6 3,3 5,7 5,11 0,4 -1,7 -2,9 -2,3 -3,5 -5,6 -3,2 -5,3 -8,4 -3,0 -5,0 -8,0 -5,0 -9,0 -14,-2 -4,-2 -8,-5 -10,-9l7 -6c1,3 3,5 7,7 3,2 6,3 10,3 2,0 3,0 5,-1 2,0 3,-1 5,-1 1,-1 2,-2 3,-4 1,-1 1,-3 1,-5 0,-3 -1,-6 -5,-7 -3,-2 -7,-3 -13,-5 -2,0 -4,-1 -6,-1 -2,-1 -4,-2 -6,-3 -1,-1 -3,-3 -4,-5 -1,-2 -2,-4 -2,-7 0,-3 1,-6 2,-8 1,-2 3,-4 5,-6 2,-1 5,-2 7,-3 3,-1 6,-1 8,-1 5,0 9,1 13,3 4,2 7,5 9,8l-7 5z"/>
   <path id="7" fill="#373435" fill-rule="nonzero" d="M1290 425l-17 0 0 36c0,2 0,4 1,5 0,2 1,3 1,4 1,1 2,1 3,2 2,0 3,0 4,0 1,0 3,0 4,0 1,-1 3,-1 4,-2l0 8c-1,0 -3,1 -5,1 -1,1 -3,1 -5,1 -2,0 -4,-1 -6,-1 -1,0 -3,-1 -5,-2 -1,-2 -2,-3 -3,-5 -1,-3 -2,-5 -2,-9l0 -38 -13 0 0 -7 13 0 0 -18 9 0 0 18 17 0 0 7z"/>
   <path id="8" fill="#373435" fill-rule="nonzero" d="M1304 431c0,-2 0,-4 0,-6 0,-3 0,-5 0,-7l8 0c0,1 0,3 1,5 0,2 0,4 0,5l0 0c2,-4 4,-6 8,-9 3,-2 7,-3 12,-3 1,0 2,0 3,0 1,0 2,0 2,1l-1 8c0,0 -1,0 -2,0 -2,-1 -3,-1 -4,-1 -2,0 -5,1 -7,2 -2,1 -4,2 -6,4 -1,2 -2,4 -3,7 -1,3 -2,6 -2,11l0 31 -9 0 0 -48z"/>
   <path id="9" fill="#373435" fill-rule="nonzero" d="M1396 479c0,-2 0,-4 0,-6 -1,-2 -1,-3 -1,-5l0 0c-2,4 -4,7 -8,9 -4,2 -8,3 -13,3 -8,0 -13,-2 -17,-6 -4,-5 -6,-11 -6,-19l0 -37 9 0 0 34c0,3 0,6 1,8 0,3 1,5 2,7 1,2 3,3 5,4 2,2 5,2 8,2 3,0 5,0 7,-1 2,-1 4,-3 6,-5 2,-2 3,-4 4,-7 1,-3 2,-7 2,-11l0 -31 9 0 0 47c0,2 0,4 0,7 0,2 0,5 0,7l-8 0z"/>
   <path id="10" fill="#373435" fill-rule="nonzero" d="M1472 432c-2,-3 -4,-5 -7,-6 -3,-2 -6,-3 -9,-3 -4,0 -7,1 -10,2 -3,2 -5,3 -7,6 -2,2 -4,4 -5,7 -1,3 -2,7 -2,10 0,4 1,7 2,10 1,3 3,6 5,8 2,2 4,4 7,5 3,1 6,2 10,2 4,0 7,-1 10,-2 3,-2 5,-4 6,-6l7 5c-2,3 -6,6 -9,8 -4,2 -9,2 -14,2 -5,0 -10,0 -14,-2 -4,-2 -7,-4 -10,-7 -3,-3 -5,-6 -7,-10 -1,-4 -2,-8 -2,-13 0,-4 1,-9 2,-13 2,-4 4,-7 7,-10 3,-3 6,-5 10,-7 4,-1 9,-2 14,-2 4,0 8,1 12,3 5,1 8,4 11,8l-7 5z"/>
   <path id="11" fill="#373435" fill-rule="nonzero" d="M1521 425l-18 0 0 36c0,2 1,4 1,5 1,2 1,3 2,4 1,1 2,1 3,2 1,0 2,0 4,0 1,0 2,0 3,0 2,-1 3,-1 4,-2l1 8c-2,0 -3,1 -5,1 -2,1 -4,1 -6,1 -1,0 -3,-1 -5,-1 -2,0 -4,-1 -5,-2 -2,-2 -3,-3 -4,-5 -1,-3 -1,-5 -1,-9l0 -38 -13 0 0 -7 13 0 0 -18 8 0 0 18 18 0 0 7z"/>
   <path id="12" fill="#373435" fill-rule="nonzero" d="M1579 479c0,-2 0,-4 0,-6 0,-2 0,-3 0,-5l-1 0c-1,4 -4,7 -8,9 -4,2 -8,3 -13,3 -7,0 -13,-2 -17,-6 -4,-5 -6,-11 -6,-19l0 -37 9 0 0 34c0,3 0,6 1,8 0,3 1,5 3,7 1,2 2,3 5,4 2,2 4,2 8,2 2,0 4,0 7,-1 2,-1 4,-3 6,-5 1,-2 3,-4 4,-7 1,-3 1,-7 1,-11l0 -31 9 0 0 47c0,2 0,4 0,7 0,2 1,5 1,7l-9 0z"/>
   <path id="13" fill="#373435" fill-rule="nonzero" d="M1611 431c0,-2 0,-4 0,-6 0,-3 -1,-5 -1,-7l9 0c0,1 0,3 0,5 0,2 0,4 0,5l1 0c1,-4 4,-6 7,-9 4,-2 8,-3 12,-3 1,0 2,0 3,0 1,0 2,0 3,1l-1 8c-1,0 -1,0 -3,0 -1,-1 -2,-1 -3,-1 -3,0 -5,1 -7,2 -2,1 -4,2 -6,4 -1,2 -3,4 -4,7 -1,3 -1,6 -1,11l0 31 -9 0 0 -48z"/>
   <path id="14" fill="#373435" fill-rule="nonzero" d="M1695 439c0,-5 -1,-9 -4,-12 -3,-2 -7,-4 -12,-4 -4,0 -7,1 -10,2 -4,2 -6,3 -8,6l-5 -6c2,-3 5,-5 10,-7 4,-1 8,-2 14,-2 3,0 6,0 9,1 3,1 5,3 8,4 2,2 3,5 5,7 1,3 2,7 2,10l0 27c0,3 0,5 0,8 0,2 0,4 1,6l-8 0c-1,-2 -1,-3 -1,-5 0,-2 0,-3 0,-5l-1 0c-2,4 -6,7 -9,9 -4,2 -8,2 -13,2 -2,0 -5,0 -7,0 -3,-1 -5,-2 -7,-4 -2,-1 -4,-3 -5,-6 -1,-2 -2,-5 -2,-8 0,-5 1,-9 3,-11 3,-3 6,-5 10,-7 4,-1 9,-2 14,-2 5,-1 11,-1 16,-1l0 -2zm-2 9c-4,0 -8,0 -12,1 -3,0 -7,1 -10,2 -3,0 -5,2 -7,4 -2,1 -3,4 -3,6 0,3 0,5 1,6 1,1 2,3 4,4 1,1 3,1 4,2 2,0 4,0 5,0 4,0 6,0 9,-1 2,-2 4,-3 6,-5 2,-2 3,-4 4,-6 1,-3 1,-5 1,-8l0 -5 -2 0z"/>
   <path id="15" fill="#373435" fill-rule="nonzero" d="M1810 469c-3,4 -6,6 -10,8 -5,2 -9,3 -13,3 -5,0 -10,0 -14,-2 -3,-2 -7,-4 -9,-7 -3,-3 -5,-6 -7,-10 -1,-4 -2,-8 -2,-13 0,-4 1,-9 2,-12 2,-4 4,-8 7,-11 2,-3 6,-5 9,-7 4,-1 9,-2 14,-2 4,0 8,1 13,3 4,2 7,5 10,9l0 0 0 -48 9 0 0 99 -9 0 0 -10 0 0zm-46 -21c0,4 1,7 2,10 1,3 2,6 4,8 2,2 5,4 8,5 2,1 6,2 9,2 4,0 7,-1 10,-2 3,-1 5,-3 7,-5 2,-2 4,-5 5,-8 1,-3 2,-6 2,-10 0,-3 -1,-7 -2,-10 -1,-3 -3,-5 -5,-7 -2,-3 -4,-4 -7,-6 -3,-1 -6,-2 -10,-2 -3,0 -7,1 -9,2 -3,2 -6,4 -8,6 -2,2 -3,5 -4,8 -1,3 -2,6 -2,9z"/>
   <path id="16" fill="#373435" fill-rule="nonzero" d="M1890 444c-1,-6 -3,-11 -6,-15 -3,-4 -8,-6 -15,-6 -3,0 -5,1 -8,2 -3,1 -5,3 -7,5 -2,1 -3,4 -4,6 -1,2 -2,5 -2,8l42 0zm9 2c0,1 0,2 0,2 0,1 0,2 0,3l-51 0c0,3 0,6 1,8 2,3 3,5 5,7 2,2 5,4 7,5 3,1 6,2 9,2 5,0 9,-1 12,-3 3,-2 6,-5 8,-8l6 6c-3,4 -7,7 -12,9 -4,2 -9,3 -14,3 -4,0 -9,0 -13,-2 -3,-2 -7,-4 -10,-7 -2,-3 -5,-6 -6,-10 -2,-4 -3,-8 -3,-13 0,-4 1,-9 3,-13 1,-4 3,-7 6,-10 3,-3 6,-5 10,-7 4,-1 8,-2 12,-2 5,0 9,1 13,2 4,2 7,4 9,7 3,3 4,6 6,10 1,3 2,7 2,11z"/>
   <path id="17" fill="#373435" fill-rule="nonzero" d="M1951 386l31 0c6,0 11,1 17,3 6,2 11,5 16,9 5,4 8,8 11,14 3,6 5,13 5,21 0,7 -2,14 -5,20 -3,6 -6,10 -11,14 -5,4 -10,7 -16,9 -6,2 -11,3 -17,3l-31 0 0 -93zm10 85l18 0c7,0 13,-2 19,-4 5,-2 9,-5 12,-8 4,-4 6,-8 8,-12 2,-5 3,-10 3,-14 0,-5 -1,-10 -3,-15 -2,-4 -4,-8 -8,-12 -3,-3 -7,-6 -12,-8 -6,-2 -12,-4 -19,-4l-18 0 0 77z"/>
   <path id="18" fill="#373435" fill-rule="nonzero" d="M2088 439c0,-5 -1,-9 -4,-12 -2,-2 -7,-4 -12,-4 -4,0 -7,1 -10,2 -3,2 -6,3 -8,6l-5 -6c2,-3 6,-5 10,-7 4,-1 9,-2 14,-2 3,0 6,0 9,1 3,1 6,3 8,4 2,2 4,5 5,7 1,3 2,7 2,10l0 27c0,3 0,5 0,8 0,2 1,4 1,6l-8 0c0,-2 -1,-3 -1,-5 0,-2 0,-3 0,-5l0 0c-3,4 -6,7 -10,9 -3,2 -8,2 -13,2 -2,0 -4,0 -7,0 -2,-1 -5,-2 -7,-4 -2,-1 -3,-3 -5,-6 -1,-2 -2,-5 -2,-8 0,-5 1,-9 4,-11 2,-3 5,-5 9,-7 4,-1 9,-2 14,-2 6,-1 11,-1 16,-1l0 -2zm-2 9c-4,0 -7,0 -11,1 -4,0 -7,1 -10,2 -3,0 -6,2 -8,4 -2,1 -3,4 -3,6 0,3 1,5 2,6 0,1 2,3 3,4 1,1 3,1 5,2 1,0 3,0 5,0 3,0 6,0 8,-1 3,-2 5,-3 6,-5 2,-2 3,-4 4,-6 1,-3 1,-5 1,-8l0 -5 -2 0z"/>
   <path id="19" fill="#373435" fill-rule="nonzero" d="M2146 425l-17 0 0 36c0,2 0,4 1,5 0,2 1,3 1,4 1,1 2,1 3,2 2,0 3,0 4,0 1,0 3,0 4,0 1,-1 3,-1 4,-2l0 8c-1,0 -3,1 -5,1 -1,1 -3,1 -5,1 -2,0 -4,-1 -6,-1 -1,0 -3,-1 -5,-2 -1,-2 -3,-3 -4,-5 -1,-3 -1,-5 -1,-9l0 -38 -13 0 0 -7 13 0 0 -18 9 0 0 18 17 0 0 7z"/>
   <path id="20" fill="#373435" fill-rule="nonzero" d="M2221 448c0,5 -1,9 -2,13 -2,4 -4,7 -7,10 -3,3 -6,5 -10,7 -4,2 -9,2 -14,2 -4,0 -9,0 -13,-2 -4,-2 -7,-4 -10,-7 -3,-3 -5,-6 -7,-10 -2,-4 -2,-8 -2,-13 0,-4 0,-9 2,-13 2,-4 4,-7 7,-10 3,-3 6,-5 10,-7 4,-1 9,-2 13,-2 5,0 10,1 14,2 4,2 7,4 10,7 3,3 5,6 7,10 1,4 2,9 2,13zm-9 0c0,-3 -1,-6 -2,-9 -1,-3 -3,-6 -5,-8 -2,-2 -4,-4 -7,-6 -3,-1 -6,-2 -10,-2 -3,0 -7,1 -9,2 -3,2 -6,4 -8,6 -2,2 -3,5 -4,8 -1,3 -2,6 -2,9 0,4 1,7 2,10 1,3 2,6 4,8 2,2 5,4 8,5 2,1 6,2 9,2 4,0 7,-1 10,-2 3,-1 5,-3 7,-5 2,-2 4,-5 5,-8 1,-3 2,-6 2,-10z"/>
   <path id="21" fill="#373435" fill-rule="nonzero" d="M2273 432c-1,-2 -3,-4 -6,-6 -3,-2 -6,-3 -9,-3 -2,0 -3,1 -5,1 -2,0 -3,1 -4,2 -1,0 -2,1 -3,3 -1,1 -1,2 -1,4 0,3 1,5 3,7 3,1 6,2 11,4 8,1 13,3 17,6 3,3 5,7 5,11 0,4 -1,7 -2,9 -2,3 -3,5 -6,6 -2,2 -4,3 -7,4 -3,0 -6,0 -8,0 -5,0 -9,0 -14,-2 -4,-2 -8,-5 -11,-9l7 -6c2,3 4,5 7,7 3,2 7,3 11,3 1,0 3,0 5,-1 2,0 3,-1 5,-1 1,-1 2,-2 3,-4 1,-1 1,-3 1,-5 0,-3 -2,-6 -5,-7 -3,-2 -7,-3 -13,-5 -2,0 -4,-1 -6,-1 -2,-1 -4,-2 -6,-3 -1,-1 -3,-3 -4,-5 -1,-2 -2,-4 -2,-7 0,-3 1,-6 2,-8 1,-2 3,-4 5,-6 2,-1 4,-2 7,-3 3,-1 5,-1 8,-1 4,0 9,1 13,3 4,2 7,5 9,8l-7 5z"/>
   <polygon id="22" fill="#373435" fill-rule="nonzero" points="2341,471 2391,471 2391,479 2332,479 2332,386 2389,386 2389,394 2341,394 2341,426 2386,426 2386,435 2341,435 "/>
   <path id="23" fill="#373435" fill-rule="nonzero" d="M2441 432c-1,-2 -3,-4 -5,-6 -3,-2 -6,-3 -10,-3 -1,0 -3,1 -4,1 -2,0 -3,1 -5,2 -1,0 -2,1 -2,3 -1,1 -2,2 -2,4 0,3 2,5 4,7 2,1 6,2 11,4 7,1 13,3 16,6 4,3 5,7 5,11 0,4 0,7 -2,9 -1,3 -3,5 -5,6 -2,2 -5,3 -7,4 -3,0 -6,0 -9,0 -4,0 -9,0 -13,-2 -5,-2 -8,-5 -11,-9l7 -6c2,3 4,5 7,7 3,2 6,3 10,3 2,0 4,0 6,-1 1,0 3,-1 4,-1 2,-1 3,-2 3,-4 1,-1 2,-3 2,-5 0,-3 -2,-6 -5,-7 -3,-2 -8,-3 -14,-5 -1,0 -3,-1 -5,-1 -2,-1 -4,-2 -6,-3 -2,-1 -3,-3 -4,-5 -2,-2 -2,-4 -2,-7 0,-3 1,-6 2,-8 1,-2 3,-4 5,-6 2,-1 4,-2 7,-3 2,-1 5,-1 8,-1 4,0 8,1 12,3 4,2 7,5 9,8l-7 5z"/>
   <path id="24" fill="#373435" fill-rule="nonzero" d="M2476 510l-9 0 0 -92 9 0 0 10 0 0c3,-4 6,-7 11,-9 4,-2 8,-3 12,-3 5,0 10,1 13,2 4,2 8,4 10,7 3,3 5,7 7,11 1,3 2,8 2,12 0,5 -1,9 -2,13 -2,4 -4,7 -7,10 -2,3 -6,5 -10,7 -3,2 -8,2 -13,2 -4,0 -8,-1 -12,-3 -5,-2 -8,-5 -11,-8l0 0 0 41zm46 -62c0,-3 -1,-6 -2,-9 -1,-3 -2,-6 -4,-8 -2,-2 -5,-4 -8,-6 -3,-1 -6,-2 -9,-2 -4,0 -7,1 -10,2 -3,2 -5,3 -7,6 -2,2 -4,4 -5,7 -1,3 -2,7 -2,10 0,4 1,7 2,10 1,3 3,6 5,8 2,2 4,4 7,5 3,1 6,2 10,2 3,0 6,-1 9,-2 3,-1 6,-3 8,-5 2,-2 3,-5 4,-8 1,-3 2,-6 2,-10z"/>
   <path id="25" fill="#373435" fill-rule="nonzero" d="M2589 439c0,-5 -1,-9 -4,-12 -3,-2 -7,-4 -12,-4 -4,0 -7,1 -11,2 -3,2 -5,3 -8,6l-5 -6c3,-3 6,-5 10,-7 5,-1 9,-2 15,-2 3,0 6,0 9,1 3,1 5,3 7,4 3,2 4,5 6,7 1,3 1,7 1,10l0 27c0,3 0,5 1,8 0,2 0,4 0,6l-8 0c0,-2 0,-3 0,-5 0,-2 0,-3 0,-5l-1 0c-3,4 -6,7 -9,9 -4,2 -8,2 -13,2 -2,0 -5,0 -7,0 -3,-1 -5,-2 -7,-4 -2,-1 -4,-3 -5,-6 -2,-2 -2,-5 -2,-8 0,-5 1,-9 3,-11 3,-3 6,-5 10,-7 4,-1 9,-2 14,-2 5,-1 10,-1 16,-1l0 -2zm-3 9c-3,0 -7,0 -11,1 -3,0 -7,1 -10,2 -3,0 -5,2 -7,4 -2,1 -3,4 -3,6 0,3 0,5 1,6 1,1 2,3 3,4 2,1 3,1 5,2 2,0 4,0 5,0 3,0 6,0 9,-1 2,-2 4,-3 6,-5 2,-2 3,-4 4,-6 1,-3 1,-5 1,-8l0 -5 -3 0z"/>
   <path id="26" fill="#373435" fill-rule="nonzero" d="M2665 432c-2,-3 -4,-5 -7,-6 -3,-2 -6,-3 -9,-3 -4,0 -7,1 -10,2 -3,2 -5,3 -7,6 -2,2 -4,4 -5,7 -1,3 -2,7 -2,10 0,4 1,7 2,10 1,3 3,6 5,8 2,2 4,4 7,5 3,1 6,2 10,2 4,0 7,-1 10,-2 2,-2 5,-4 6,-6l7 5c-3,3 -6,6 -10,8 -3,2 -8,2 -13,2 -5,0 -10,0 -14,-2 -4,-2 -7,-4 -10,-7 -3,-3 -5,-6 -7,-10 -1,-4 -2,-8 -2,-13 0,-4 1,-9 2,-13 2,-4 4,-7 7,-10 3,-3 6,-5 10,-7 4,-1 9,-2 14,-2 4,0 8,1 12,3 4,1 8,4 10,8l-6 5z"/>
   <path id="27" fill="#373435" fill-rule="nonzero" d="M2695 479l-9 0 0 -61 9 0 0 61zm2 -85c0,2 -1,3 -2,4 -2,2 -3,2 -5,2 -1,0 -3,0 -4,-2 -1,-1 -2,-2 -2,-4 0,-2 1,-3 2,-5 1,-1 3,-1 4,-1 2,0 3,0 5,1 1,2 2,3 2,5z"/>
   <path id="28" fill="#373435" fill-rule="nonzero" d="M2757 439c0,-5 -1,-9 -4,-12 -3,-2 -7,-4 -12,-4 -4,0 -7,1 -10,2 -3,2 -6,3 -8,6l-5 -6c2,-3 6,-5 10,-7 4,-1 9,-2 14,-2 3,0 6,0 9,1 3,1 6,3 8,4 2,2 4,5 5,7 1,3 2,7 2,10l0 27c0,3 0,5 0,8 0,2 0,4 1,6l-8 0c0,-2 -1,-3 -1,-5 0,-2 0,-3 0,-5l0 0c-3,4 -6,7 -10,9 -3,2 -8,2 -13,2 -2,0 -4,0 -7,0 -2,-1 -5,-2 -7,-4 -2,-1 -4,-3 -5,-6 -1,-2 -2,-5 -2,-8 0,-5 1,-9 4,-11 2,-3 5,-5 9,-7 4,-1 9,-2 14,-2 5,-1 11,-1 16,-1l0 -2zm-2 9c-4,0 -8,0 -11,1 -4,0 -7,1 -10,2 -3,0 -6,2 -8,4 -2,1 -3,4 -3,6 0,3 1,5 2,6 0,1 1,3 3,4 1,1 3,1 4,2 2,0 4,0 6,0 3,0 6,0 8,-1 3,-2 5,-3 6,-5 2,-2 3,-4 4,-6 1,-3 1,-5 1,-8l0 -5 -2 0z"/>
   <polygon id="29" fill="#373435" fill-rule="nonzero" points="2798,479 2789,479 2789,380 2798,380 "/>
   <path id="30" fill="#373435" fill-rule="nonzero" d="M2869 444c-1,-6 -3,-11 -6,-15 -3,-4 -8,-6 -15,-6 -3,0 -6,1 -8,2 -3,1 -5,3 -7,5 -2,1 -3,4 -4,6 -1,2 -2,5 -2,8l42 0zm9 2c0,1 0,2 0,2 0,1 0,2 -1,3l-50 0c0,3 0,6 1,8 2,3 3,5 5,7 2,2 5,4 7,5 3,1 6,2 9,2 5,0 9,-1 12,-3 3,-2 6,-5 8,-8l6 6c-3,4 -7,7 -12,9 -4,2 -9,3 -14,3 -5,0 -9,0 -13,-2 -4,-2 -7,-4 -10,-7 -2,-3 -5,-6 -6,-10 -2,-4 -3,-8 -3,-13 0,-4 1,-9 3,-13 1,-4 3,-7 6,-10 3,-3 6,-5 10,-7 4,-1 8,-2 12,-2 5,0 9,1 13,2 4,2 7,4 9,7 3,3 4,6 6,10 1,3 2,7 2,11z"/>
   <path id="31" fill="#373435" fill-rule="nonzero" d="M2929 432c-1,-2 -3,-4 -6,-6 -2,-2 -5,-3 -9,-3 -1,0 -3,1 -4,1 -2,0 -3,1 -5,2 -1,0 -2,1 -3,3 0,1 -1,2 -1,4 0,3 1,5 4,7 2,1 6,2 11,4 7,1 13,3 16,6 4,3 5,7 5,11 0,4 0,7 -2,9 -1,3 -3,5 -5,6 -2,2 -5,3 -8,4 -2,0 -5,0 -8,0 -4,0 -9,0 -13,-2 -5,-2 -8,-5 -11,-9l7 -6c2,3 4,5 7,7 3,2 6,3 10,3 2,0 4,0 6,-1 1,0 3,-1 4,-1 1,-1 2,-2 3,-4 1,-1 1,-3 1,-5 0,-3 -1,-6 -4,-7 -3,-2 -8,-3 -14,-5 -1,0 -3,-1 -5,-1 -3,-1 -4,-2 -6,-3 -2,-1 -3,-3 -5,-5 -1,-2 -1,-4 -1,-7 0,-3 0,-6 2,-8 1,-2 2,-4 5,-6 2,-1 4,-2 7,-3 2,-1 5,-1 8,-1 4,0 8,1 12,3 4,2 7,5 9,8l-7 5z"/>
   <polygon fill="#09A0E4" fill-rule="nonzero" points="862,257 879,257 879,349 862,349 "/>
   <path id="1" fill="#09A0E4" fill-rule="nonzero" d="M899 257l33 0c6,0 12,1 18,3 6,1 11,4 16,8 5,3 9,8 12,14 3,6 4,13 4,21 0,8 -1,15 -4,21 -3,6 -7,11 -12,14 -5,4 -10,7 -16,9 -6,1 -12,2 -18,2l-33 0 0 -92zm30 78c4,0 8,0 13,-1 4,-1 8,-3 11,-5 4,-3 6,-6 9,-10 2,-4 3,-9 3,-16 0,-6 -1,-12 -3,-16 -3,-4 -5,-7 -9,-9 -3,-3 -7,-4 -11,-5 -5,-1 -9,-2 -13,-2l-14 0 0 64 14 0z"/>
   <polygon id="2" fill="#09A0E4" fill-rule="nonzero" points="998,257 1059,257 1059,272 1014,272 1014,295 1057,295 1057,309 1014,309 1014,335 1061,335 1061,349 998,349 "/>
   <polygon id="3" fill="#09A0E4" fill-rule="nonzero" points="1077,257 1138,257 1138,272 1094,272 1094,295 1136,295 1136,309 1094,309 1094,335 1140,335 1140,349 1077,349 "/>
   <path id="4" fill="#09A0E4" fill-rule="nonzero" d="M1156 257l32 0c5,0 9,1 13,2 4,1 8,2 11,4 3,2 6,5 7,8 2,4 3,8 3,13 0,6 -2,12 -5,16 -4,4 -9,7 -16,9l25 40 -20 0 -21 -39 -12 0 0 39 -17 0 0 -92zm30 40c3,0 5,0 7,0 3,-1 5,-1 6,-2 2,-1 4,-3 5,-5 1,-1 2,-4 2,-6 0,-3 -1,-5 -2,-6 -1,-2 -2,-3 -4,-4 -2,-1 -4,-2 -6,-2 -2,-1 -4,-1 -6,-1l-15 0 0 26 13 0z"/>
  </g>
 </g>
</svg>
